<svg width="103" height="119" viewBox="0 0 103 119" fill="none" xmlns="http://www.w3.org/2000/svg">
<path d="M51.5 2C78.8381 2 101 24.1619 101 51.5C101 71.4961 89.1424 88.7159 72.085 96.5264C67.492 99.1519 64.2897 101.55 61.627 104.396C58.9439 107.263 56.7309 110.667 54.21 115.408C53.0754 117.541 50.0087 117.54 48.874 115.409C46.3516 110.673 44.121 107.268 41.4199 104.4C38.7385 101.554 35.5166 99.1545 30.9199 96.5283C13.8599 88.7189 2 71.498 2 51.5C2 24.1619 24.1619 2 51.5 2Z" fill="#494456" stroke="white" stroke-width="4"/>
<path d="M62.6665 54.3333C62.6665 55.7478 63.2284 57.1044 64.2286 58.1046C65.2288 59.1048 66.5853 59.6667 67.9998 59.6667C69.4143 59.6667 70.7709 59.1048 71.7711 58.1046C72.7713 57.1044 73.3332 55.7478 73.3332 54.3333C73.3332 52.9188 72.7713 51.5623 71.7711 50.5621C70.7709 49.5619 69.4143 49 67.9998 49C66.5853 49 65.2288 49.5619 64.2286 50.5621C63.2284 51.5623 62.6665 52.9188 62.6665 54.3333Z" stroke="white" stroke-width="5.33333" stroke-linecap="round" stroke-linejoin="round"/>
<path d="M30.6665 54.3333C30.6665 55.7478 31.2284 57.1044 32.2286 58.1046C33.2288 59.1048 34.5853 59.6667 35.9998 59.6667C37.4143 59.6667 38.7709 59.1048 39.7711 58.1046C40.7713 57.1044 41.3332 55.7478 41.3332 54.3333C41.3332 52.9188 40.7713 51.5623 39.7711 50.5621C38.7709 49.5619 37.4143 49 35.9998 49C34.5853 49 33.2288 49.5619 32.2286 50.5621C31.2284 51.5623 30.6665 52.9188 30.6665 54.3333Z" stroke="white" stroke-width="5.33333" stroke-linecap="round" stroke-linejoin="round"/>
<path d="M41.3335 54.333H54.6668C55.1909 50.985 56.7644 47.8898 59.1607 45.4935C61.5569 43.0973 64.6521 41.5237 68.0002 40.9997V27.6663C68.0002 26.2519 67.4383 24.8953 66.4381 23.8951C65.4379 22.8949 64.0813 22.333 62.6668 22.333H60.0002" stroke="white" stroke-width="5.33333" stroke-linecap="round" stroke-linejoin="round"/>
<path d="M27 76C27 73.2386 29.2386 71 32 71H40C41.1046 71 42 71.8954 42 73V79C42 80.1046 41.1046 81 40 81H32C29.2386 81 27 78.7614 27 76V76Z" fill="#3CFD9B"/>
<rect x="44" y="71" width="15" height="10" rx="2" fill="#3CFD9B"/>
<path d="M76 76C76 78.7614 73.7614 81 71 81L63 81C61.8954 81 61 80.1046 61 79L61 73C61 71.8954 61.8954 71 63 71L71 71C73.7614 71 76 73.2386 76 76V76Z" fill="#3CFD9B"/>
</svg>
